<svg xmlns="http://www.w3.org/2000/svg" width="56.278" height="50.65" viewBox="0 0 56.278 50.65">
  <path id="camera_icon" d="M108.139-799.2a12.211,12.211,0,0,0,8.969-3.693,12.211,12.211,0,0,0,3.693-8.969,12.211,12.211,0,0,0-3.693-8.969,12.211,12.211,0,0,0-8.969-3.693,12.211,12.211,0,0,0-8.969,3.693,12.211,12.211,0,0,0-3.693,8.969,12.211,12.211,0,0,0,3.693,8.969A12.211,12.211,0,0,0,108.139-799.2Zm0-5.628a6.793,6.793,0,0,1-4.995-2.04,6.793,6.793,0,0,1-2.04-4.995,6.793,6.793,0,0,1,2.04-4.995,6.793,6.793,0,0,1,4.995-2.04,6.793,6.793,0,0,1,4.995,2.04,6.793,6.793,0,0,1,2.04,4.995,6.793,6.793,0,0,1-2.04,4.995A6.793,6.793,0,0,1,108.139-804.826ZM85.628-789.35A5.419,5.419,0,0,1,81.653-791,5.419,5.419,0,0,1,80-794.978v-33.767a5.419,5.419,0,0,1,1.653-3.975,5.419,5.419,0,0,1,3.975-1.653h8.864l3.517-3.8a5.654,5.654,0,0,1,1.864-1.337,5.492,5.492,0,0,1,2.286-.492h11.959a5.492,5.492,0,0,1,2.286.492,5.654,5.654,0,0,1,1.864,1.337l3.517,3.8h8.864a5.419,5.419,0,0,1,3.975,1.653,5.419,5.419,0,0,1,1.653,3.975v33.767A5.419,5.419,0,0,1,134.625-791a5.419,5.419,0,0,1-3.975,1.653Zm0-5.628H130.65v-33.767h-11.4l-5.135-5.628H102.159l-5.135,5.628h-11.4ZM108.139-811.861Z" transform="translate(-80 840)" fill="#fff"/>
</svg>
