<svg xmlns="http://www.w3.org/2000/svg" width="38" height="34.2" viewBox="0 0 38 34.2">
  <path id="commuvity_ico1_0" data-name="commuvity_ico1 0" d="M99.048-807.557a9.646,9.646,0,0,1-3.064,1.354,13.752,13.752,0,0,1-3.3.4,12.126,12.126,0,0,1-3.277-.451,13.208,13.208,0,0,1-3.088-1.306,12.8,12.8,0,0,1-2.161,1.021,12.622,12.622,0,0,1-2.3.594,1.527,1.527,0,0,1-1.306-.427A1.761,1.761,0,0,1,80-807.7a1.966,1.966,0,0,1,.522-1.378,2.548,2.548,0,0,1,1.33-.76,9.253,9.253,0,0,0,1.686-.617,11.86,11.86,0,0,0,1.544-.9,2,2,0,0,1,1.211-.38,2,2,0,0,1,1.211.38,9.572,9.572,0,0,0,2.47,1.259,8.375,8.375,0,0,0,2.708.451,9.021,9.021,0,0,0,2.731-.427,8.946,8.946,0,0,0,2.494-1.235,1.852,1.852,0,0,1,1.188-.356,2.1,2.1,0,0,1,1.187.4,8.6,8.6,0,0,0,2.446,1.211,9.037,9.037,0,0,0,2.684.4,7.783,7.783,0,0,0,2.755-.5,11.879,11.879,0,0,0,2.518-1.306,2.179,2.179,0,0,1,1.092-.356,1.7,1.7,0,0,1,1.092.356q.76.523,1.52.95a7.015,7.015,0,0,0,1.662.665,3.3,3.3,0,0,1,1.378.784A1.8,1.8,0,0,1,118-807.7a1.8,1.8,0,0,1-.57,1.354,1.506,1.506,0,0,1-1.378.4,10.633,10.633,0,0,1-2.209-.618,16.527,16.527,0,0,1-2.066-1,12.245,12.245,0,0,1-3.064,1.306,12.385,12.385,0,0,1-3.3.451,12.385,12.385,0,0,1-3.3-.451A12.245,12.245,0,0,1,99.048-807.557ZM80-814.35v-3.8a20.849,20.849,0,0,1,1.781-8.6,21.712,21.712,0,0,1,4.869-6.935,22.788,22.788,0,0,1,7.244-4.631A23.462,23.462,0,0,1,102.8-840q.807,0,1.686.024a11.474,11.474,0,0,1,1.686.166,1.81,1.81,0,0,1,1.4,1,1.774,1.774,0,0,1,.024,1.71,11.3,11.3,0,0,0-.736,1.995,8.217,8.217,0,0,0-.261,2.09,6.085,6.085,0,0,0,1.853,4.465,6.086,6.086,0,0,0,4.465,1.853H116.1a1.838,1.838,0,0,1,1.354.546A1.839,1.839,0,0,1,118-824.8a1.839,1.839,0,0,1-.546,1.354,1.839,1.839,0,0,1-1.354.546h-3.182a9.761,9.761,0,0,1-7.173-2.945,9.761,9.761,0,0,1-2.945-7.172,10.967,10.967,0,0,1,.095-1.4,11.16,11.16,0,0,1,.285-1.449,10.291,10.291,0,0,0-5.747,3.634A10.047,10.047,0,0,0,95.2-825.75a9.681,9.681,0,0,0,.546,3.254,11.512,11.512,0,0,0,1.544,2.921l.618-.428a1.832,1.832,0,0,1,1.092-.38,1.832,1.832,0,0,1,1.092.38,10.908,10.908,0,0,0,2.541,1.283,8.18,8.18,0,0,0,2.779.522,8.18,8.18,0,0,0,2.779-.522A10.908,10.908,0,0,0,110.733-820a2.149,2.149,0,0,1,1.069-.356,1.817,1.817,0,0,1,1.069.309l1.045.713q.522.285,1.069.546a5.877,5.877,0,0,0,1.116.4,3.122,3.122,0,0,1,1.354.784A1.838,1.838,0,0,1,118-816.25a1.8,1.8,0,0,1-.57,1.354,1.506,1.506,0,0,1-1.378.4,11.844,11.844,0,0,1-2.161-.594,13.622,13.622,0,0,1-2.114-1.021,11,11,0,0,1-3.088,1.354,13.1,13.1,0,0,1-3.278.4,12.728,12.728,0,0,1-3.42-.475,10.478,10.478,0,0,1-2.945-1.282A10.977,10.977,0,0,1,95.96-814.8a15.269,15.269,0,0,1-3.277.451,10.487,10.487,0,0,1-3.277-.427,13.992,13.992,0,0,1-3.088-1.33,13.321,13.321,0,0,1-3.064,1.306A11.867,11.867,0,0,1,80-814.35ZM92.587-818.2h.475a2.411,2.411,0,0,0,.475-.047,13.85,13.85,0,0,1-1.591-3.562,14.2,14.2,0,0,1-.546-3.943,13.9,13.9,0,0,1,1.758-6.959,14.37,14.37,0,0,1,4.893-5.106v2.09a19.544,19.544,0,0,0-5.439,2.3,18.68,18.68,0,0,0-4.37,3.729,18.572,18.572,0,0,0-3.016,4.869,18.153,18.153,0,0,0-1.377,5.724q.38-.237.712-.427a7.806,7.806,0,0,0,.665-.427,1.977,1.977,0,0,1,1.092-.4A1.706,1.706,0,0,1,87.41-820q.428.285.855.523t.9.475a9.052,9.052,0,0,0,1.662.594A7.221,7.221,0,0,0,92.587-818.2ZM90.973-828.03Z" transform="translate(-80 840)" fill="#6cb9b3"/>
</svg>
