<svg xmlns="http://www.w3.org/2000/svg" width="33.702" height="34.2" viewBox="0 0 33.702 34.2">
  <path id="commuvity_ico2_0" data-name="commuvity_ico2 0" d="M164.213-785.8a4.22,4.22,0,0,1-2.975-1.148,3.633,3.633,0,0,1-1.237-2.76V-807.3a3.654,3.654,0,0,1,.448-1.759,3.834,3.834,0,0,1,1.237-1.368l12.638-8.794a4.27,4.27,0,0,1,2.528-.782,4.27,4.27,0,0,1,2.528.782l12.638,8.794a3.834,3.834,0,0,1,1.237,1.368,3.653,3.653,0,0,1,.448,1.759v17.589a3.633,3.633,0,0,1-1.237,2.76,4.22,4.22,0,0,1-2.975,1.148Zm0-3.909h25.276V-807.3l-12.638-8.794L164.213-807.3ZM176.851-802.9Zm-8.425,8.306h16.851v1.954a.906.906,0,0,0,.316.684,1.05,1.05,0,0,0,.737.293,1.05,1.05,0,0,0,.737-.293.906.906,0,0,0,.316-.684v-6.84a3.633,3.633,0,0,0-1.237-2.76,4.22,4.22,0,0,0-2.975-1.148H177.9a2.123,2.123,0,0,0-1.5.562,1.823,1.823,0,0,0-.606,1.392v4.886h-7.372v-7.817a.906.906,0,0,0-.316-.684,1.05,1.05,0,0,0-.737-.293,1.05,1.05,0,0,0-.737.293.906.906,0,0,0-.316.684v11.726a.906.906,0,0,0,.316.684,1.05,1.05,0,0,0,.737.293,1.05,1.05,0,0,0,.737-.293.906.906,0,0,0,.316-.684Zm3.686-2.931a2.647,2.647,0,0,0,1.869-.708,2.275,2.275,0,0,0,.764-1.734,2.275,2.275,0,0,0-.764-1.734,2.646,2.646,0,0,0-1.869-.708,2.646,2.646,0,0,0-1.869.708,2.275,2.275,0,0,0-.764,1.734,2.275,2.275,0,0,0,.764,1.734A2.647,2.647,0,0,0,172.112-797.525Z" transform="translate(-160 820)" fill="#6cb9b3"/>
</svg>
