<svg xmlns="http://www.w3.org/2000/svg" xmlns:xlink="http://www.w3.org/1999/xlink" width="371" height="55.154" viewBox="0 0 371 55.154">
  <defs>
    <clipPath id="clip-path">
      <rect id="사각형_26" data-name="사각형 26" width="209.667" height="55.154" fill="none"/>
    </clipPath>
  </defs>
  <g id="logo" transform="translate(-330 -23.846)">
    <g id="그룹_2" data-name="그룹 2" transform="translate(330 23.846)">
      <g id="그룹_1" data-name="그룹 1" transform="translate(0 0)" clip-path="url(#clip-path)">
        <path id="패스_1" data-name="패스 1" d="M78.3,27.576c0,15.231-17.529,27.578-39.153,27.578S0,42.807,0,27.576,17.529,0,39.148,0,78.3,12.349,78.3,27.576" transform="translate(0 0)" fill="#0d3896"/>
        <path id="패스_2" data-name="패스 2" d="M42.775,51.661c-16.744-.754-17.213-1.514-14.14-1.58,0,0,62.92-2.7,15.629-6.218,0,0-7.594-.606,12.7-1.234,0,0,5.223-.917-21.863-2.749,0,0,5.413-2.466,23.389-1.76L52.619,26.054s-.962-5.006-1.378-6.681-1.5-18.92-1.5-18.92c-1.774.223-3.906.382-3.906.382C38.429.428,27.56,4.117,27.56,4.117l-2.438.5-.174,3.153a23.936,23.936,0,0,1,.174,6.472c.152,2.793-3.621,9.071-3.621,9.071l2.335,6.7-.109,3.973,2.441,5.974S41.4,41.53,45.69,41.321c0,0,9.715.469-3.55,1.088,0,0-37.261-.144-27.453,1.409,0,0,17.527,1.506,26.709,2.141,0,0,10.117,1.173-15.875,2.708,0,0-12.18.935-.479,3.213,0,0,19.239,3,35.437.019,0,0,5.316-1.519-1.915-.83,0,0-14.07.67-15.789.593" transform="translate(-2.072 -0.072)" fill="#fff"/>
        <path id="패스_3" data-name="패스 3" d="M78.7,30.282s-11.231-.614-12.825,2.533c0,0-3.5,4.994,9.7,3.889,0,0-.955-3.464,3.125-6.422" transform="translate(-10.399 -4.803)" fill="#fc0"/>
        <path id="패스_4" data-name="패스 4" d="M47.179,23.636s-11.2-.63-12.789,2.609c0,0-3.491,5.136,9.67,4,0,0-.95-3.562,3.119-6.606" transform="translate(-5.397 -3.747)" fill="#40a629"/>
        <path id="패스_5" data-name="패스 5" d="M62.04,10.3s-10.93-.609-12.48,2.517c0,0-3.407,4.954,9.438,3.861,0,0-.929-3.442,3.041-6.377" transform="translate(-7.809 -1.629)" fill="#ff7f00"/>
        <path id="패스_6" data-name="패스 6" d="M122.577,22.783a3.445,3.445,0,0,1-2.75,1.375,3.39,3.39,0,0,1-2.723-1.352,4.865,4.865,0,0,1,0-6.175,3.409,3.409,0,0,1,2.723-1.33,3.566,3.566,0,0,1,2.75,1.258,4.51,4.51,0,0,1,1.133,3.124,4.758,4.758,0,0,1-1.133,3.1M147.982,21.2h-6.037V11.946h-9.4v1.926h.927a1.752,1.752,0,0,1,1.4.541,1.708,1.708,0,0,1,.463,1.118V28.823a11.769,11.769,0,0,1-2.136.406c-.837.089-2.085.134-3.232.134h-6.889V27.13a11,11,0,0,0,5.006-2.832,6.463,6.463,0,0,0,1.882-4.567,6.79,6.79,0,0,0-3.017-5.587,12.785,12.785,0,0,0-14.561,0,6.794,6.794,0,0,0-3,5.587,6.457,6.457,0,0,0,1.88,4.567,10.826,10.826,0,0,0,4.91,2.832v2.232h-9.357V33.2h21.284c1.641,0,3.269-.03,4.368-.1a15.482,15.482,0,0,0,2.856-.4v5.061h6.615V24.97h6.037Zm-5.575,21.892H121.981a.774.774,0,0,1-.511-.155.518.518,0,0,1-.183-.424V35.452H111.65v1.924h.931a1.9,1.9,0,0,1,1.389.463,1.52,1.52,0,0,1,.468,1.12V43.89a2.871,2.871,0,0,0,.929,2.37,4.455,4.455,0,0,0,2.833.75h24.208Z" transform="translate(-16.972 -1.886)" fill="#fff"/>
        <path id="패스_7" data-name="패스 7" d="M160.742,18.084a1.54,1.54,0,0,0-.453-1.117,1.781,1.781,0,0,0-1.34-.462h-.9V14.58h32.976V18.2H167.393v9.2a.688.688,0,0,0,.246.577.957.957,0,0,0,.606.193h23v3.546H165.9a5.943,5.943,0,0,1-3.922-1.061,4.432,4.432,0,0,1-1.231-3.524ZM179.2,41.3h15.639v3.81H156.822V41.3h15.721l-.052-3.848a1.394,1.394,0,0,0-.426-1.06,1.593,1.593,0,0,0-1.143-.4h-.717V34.1h8.939Z" transform="translate(-24.915 -2.316)" fill="#fff"/>
        <path id="패스_8" data-name="패스 8" d="M215.744,34.847v8.318a.541.541,0,0,0,.177.424.735.735,0,0,0,.492.155H238.87v3.628H212.763a4.2,4.2,0,0,1-2.736-.752,2.927,2.927,0,0,1-.892-2.368V38.357a1.54,1.54,0,0,0-.45-1.118,1.793,1.793,0,0,0-1.347-.462h-.894v-1.93Zm21.3-8.281h4.966v3.852H227.289v8.214H220.37V30.417H203.554V26.566h26.918a5.657,5.657,0,0,0,.873-2.426,35.583,35.583,0,0,0,.156-3.722V18.262a.76.76,0,0,0-.177-.58,1.194,1.194,0,0,0-.718-.155H207.338V13.849h30.377a.5.5,0,0,1,.335.1.351.351,0,0,1,.11.287v5.7a30.648,30.648,0,0,1-.245,4.3,5.324,5.324,0,0,1-.875,2.329" transform="translate(-32.34 -2.2)" fill="#fff"/>
      </g>
    </g>
    <text id="청산도" transform="translate(590 63)" fill="#fff" font-size="40" font-family="OTSBAggroL, SB AggroOTF"><tspan x="0" y="0">청산도</tspan></text>
    <line id="선_1" data-name="선 1" y2="26" transform="translate(566.5 39.423)" fill="none" stroke="#fff" stroke-width="1" opacity="0.2"/>
  </g>
</svg>
