<svg xmlns="http://www.w3.org/2000/svg" width="12.5" height="12.5" viewBox="0 0 12.5 12.5">
  <path id="more1" d="M205.357-752.857h-4.464a.864.864,0,0,1-.636-.257.864.864,0,0,1-.257-.636.864.864,0,0,1,.257-.636.864.864,0,0,1,.636-.257h4.464v-4.464a.864.864,0,0,1,.257-.636.864.864,0,0,1,.636-.257.864.864,0,0,1,.636.257.864.864,0,0,1,.257.636v4.464h4.464a.864.864,0,0,1,.636.257.864.864,0,0,1,.257.636.864.864,0,0,1-.257.636.864.864,0,0,1-.636.257h-4.464v4.464a.864.864,0,0,1-.257.636.864.864,0,0,1-.636.257.864.864,0,0,1-.636-.257.864.864,0,0,1-.257-.636Z" transform="translate(-200 760)" fill="#fff"/>
</svg>
