<svg width="172" height="57" viewBox="0 0 172 57" fill="none" xmlns="http://www.w3.org/2000/svg">
<g clip-path="url(#clip0_7_120)">
<path d="M50.3146 43.3412C49.1393 42.9217 48.9166 42.642 48.9166 42.1608C48.9166 41.6796 49.2548 41.2971 50.0589 41.2971C50.6486 41.2971 51.0404 41.4904 51.4693 41.8441L51.8899 41.33C51.3951 40.9352 50.8919 40.7048 50.1002 40.7048C49.0032 40.7048 48.261 41.2642 48.261 42.2019C48.261 43.0492 48.6898 43.4604 49.96 43.9129C51.0363 44.2995 51.3621 44.6079 51.3621 45.1508C51.3621 45.7719 50.8755 46.1585 50.0961 46.1585C49.4899 46.1585 48.9785 45.8788 48.5331 45.4552L48.1001 45.9405C48.562 46.4094 49.2754 46.7548 50.0754 46.7548C51.3002 46.7548 52.0219 46.0392 52.0219 45.122C52.0219 44.2049 51.6219 43.8141 50.3187 43.3453L50.3146 43.3412Z" fill="white"/>
<path d="M54.6859 42.1731C54.1126 42.1731 53.593 42.313 53.2054 42.5227L53.4446 43.0327C53.8034 42.823 54.1827 42.6955 54.6446 42.6955C55.2879 42.6955 55.6013 43.0122 55.6013 43.6702V44.1884C55.3415 44.0445 54.9415 43.9334 54.5003 43.9334C53.6302 43.9334 52.8136 44.353 52.8136 45.34C52.8136 46.4012 53.5353 46.7466 54.2199 46.7466C54.8549 46.7466 55.2879 46.4505 55.6013 46.1174V46.6562H56.2282V43.588C56.2282 42.568 55.6343 42.1649 54.6859 42.1649V42.1731ZM55.6013 45.5827C55.3333 45.9487 54.9044 46.2408 54.3353 46.2408C53.7951 46.2408 53.4322 45.957 53.4322 45.303C53.4322 44.7519 53.8199 44.4393 54.4673 44.4393C55.0034 44.4393 55.3127 44.538 55.6013 44.6943V45.5868V45.5827Z" fill="white"/>
<path d="M62.5541 44.0856V46.6602H63.1809V43.9828C63.1809 42.6995 62.6201 42.1731 61.7211 42.1731C61.0035 42.1731 60.6448 42.5062 60.385 42.9257C60.1746 42.5062 59.7994 42.1731 59.1767 42.1731C58.6571 42.1731 58.2859 42.424 58.0591 42.8024V42.2677H57.4241V46.6643H58.0591V44.0897C58.0591 43.1149 58.4344 42.716 59.0406 42.716C59.6468 42.716 59.9891 43.082 59.9891 44.0897V46.6643H60.62V44.0897C60.62 43.1149 61.0035 42.716 61.6015 42.716C62.2366 42.716 62.55 43.082 62.55 44.0897L62.5541 44.0856Z" fill="white"/>
<path d="M65.7088 44.1021C64.9624 43.7649 64.7397 43.6209 64.7397 43.2466C64.7397 42.9258 65.0036 42.7037 65.4696 42.7037C65.9356 42.7037 66.2243 42.8271 66.5665 43.0986L66.9171 42.6338C66.583 42.3583 66.1129 42.1691 65.5109 42.1691C64.7067 42.1691 64.1335 42.6215 64.1335 43.2878C64.1335 43.9911 64.5005 44.2584 65.3871 44.6368C66.1665 44.9699 66.4263 45.1714 66.4263 45.5334C66.4263 45.9611 66.1418 46.212 65.5356 46.212C65.0985 46.212 64.6861 46.0351 64.3356 45.7267L63.9644 46.1832C64.3851 46.5205 64.9129 46.7467 65.5191 46.7467C66.282 46.7467 67.0284 46.3724 67.0284 45.5046C67.0284 44.719 66.5418 44.4764 65.7047 44.098L65.7088 44.1021Z" fill="white"/>
<path d="M70.7069 44.8341C70.7069 45.7965 70.2244 46.2037 69.6182 46.2037C68.9089 46.2037 68.5748 45.78 68.5748 44.8341V42.2635H67.948V44.941C67.948 46.2037 68.5625 46.7507 69.4903 46.7507C70.047 46.7507 70.4553 46.4916 70.7069 46.1214V46.6602H71.3378V42.2635H70.7069V44.8341Z" fill="white"/>
<path d="M75.7915 46.6602V43.9828C75.7915 42.716 75.1771 42.1731 74.2451 42.1731C73.6925 42.1731 73.2801 42.4322 73.0327 42.8024V42.2677H72.3976V46.6643H73.0327V44.0897C73.0327 43.1273 73.5069 42.716 74.1172 42.716C74.8224 42.716 75.1606 43.1437 75.1606 44.0897V46.6643H75.7915V46.6602Z" fill="white"/>
<path d="M77.7751 47.7954L77.9771 48.2725C79.6143 48.2232 80.2081 47.5857 80.2081 46.2614V42.2596H79.5772V42.7531C79.2679 42.3994 78.8885 42.1691 78.3359 42.1691C77.4122 42.1691 76.6699 42.9711 76.6699 44.5298C76.6699 46.0886 77.3709 46.7467 78.2493 46.7467C78.8473 46.7467 79.2679 46.4505 79.5772 46.1174V46.3436C79.5772 47.3677 79.2431 47.7543 77.7709 47.7913L77.7751 47.7954ZM78.4101 46.2038C77.7132 46.2038 77.2926 45.628 77.2926 44.5216C77.2926 43.3412 77.6514 42.712 78.3854 42.712C78.9091 42.712 79.3339 43.004 79.5772 43.37V45.5704C79.2679 45.957 78.8802 46.2038 78.4101 46.2038Z" fill="white"/>
<path d="M87.1609 43.6866C87.1609 41.6754 86.0227 40.7953 84.4804 40.7953H82.9257V46.6602H84.3649C85.9361 46.6602 87.1609 45.813 87.1609 43.6866ZM83.5814 41.3875H84.4309C85.7835 41.3875 86.5052 42.2101 86.5052 43.7072C86.5052 45.3935 85.7134 46.0638 84.4474 46.0638H83.5814V41.3875Z" fill="white"/>
<path d="M88.8392 42.8065V42.2636H88.2083V46.6603H88.8392V44.0774C88.8392 43.2384 89.1856 42.7489 89.8001 42.7489C90.0929 42.7489 90.2826 42.8147 90.4599 42.9176L90.6166 42.2842C90.4682 42.2184 90.2578 42.1772 89.9279 42.1772C89.4537 42.1772 89.0372 42.461 88.8392 42.8106V42.8065Z" fill="white"/>
<path d="M94.3858 46.2407L94.0889 45.7883C93.6847 46.0557 93.3837 46.2078 92.8682 46.2078C92.1507 46.2078 91.7012 45.6115 91.6434 44.6779H94.5796C94.6002 44.575 94.6085 44.4846 94.6085 44.3365C94.6085 43.0821 93.9816 42.1772 92.8311 42.1772C91.7837 42.1772 91.0125 43.0451 91.0125 44.4393C91.0125 46.1708 91.994 46.7548 92.8022 46.7548C93.4662 46.7548 93.8538 46.578 94.3858 46.2449V46.2407ZM92.8311 42.716C93.6023 42.716 93.9734 43.3124 94.0229 44.1638H91.6434C91.7177 43.1808 92.1754 42.716 92.8311 42.716Z" fill="white"/>
<path d="M96.7116 46.7508C97.3425 46.7508 97.7756 46.4547 98.0848 46.1215V46.6603H98.7158V43.5921C98.7158 42.5721 98.1219 42.1691 97.1735 42.1691C96.6003 42.1691 96.0807 42.3089 95.693 42.5187L95.9281 43.0287C96.291 42.8189 96.6662 42.6914 97.1281 42.6914C97.7755 42.6914 98.0848 43.0081 98.0848 43.6661V44.1844C97.825 44.0404 97.4291 43.9294 96.9879 43.9294C96.1137 43.9294 95.293 44.3489 95.293 45.336C95.293 46.3971 96.0188 46.7426 96.7075 46.7426L96.7116 46.7508ZM96.9549 44.4352C97.491 44.4352 97.8044 44.534 98.089 44.6902V45.5827C97.8209 45.9488 97.392 46.2408 96.8229 46.2408C96.2868 46.2408 95.9198 45.957 95.9198 45.3031C95.9198 44.7519 96.3116 44.4394 96.9549 44.4394V44.4352Z" fill="white"/>
<path d="M105.042 44.0856V46.6602H105.673V43.9828C105.673 42.6995 105.112 42.1731 104.213 42.1731C103.499 42.1731 103.136 42.5062 102.881 42.9257C102.671 42.5062 102.295 42.1731 101.673 42.1731C101.149 42.1731 100.782 42.424 100.555 42.8024V42.2677H99.9282V46.6643H100.555V44.0897C100.555 43.1149 100.934 42.716 101.541 42.716C102.147 42.716 102.493 43.082 102.493 44.0897V46.6643H103.12V44.0897C103.12 43.1149 103.504 42.716 104.106 42.716C104.741 42.716 105.054 43.082 105.054 44.0897L105.042 44.0856Z" fill="white"/>
<path d="M50.3146 52.0645C49.1352 51.645 48.9208 51.3694 48.9208 50.8841C48.9208 50.3988 49.2589 50.0245 50.0631 50.0245C50.6528 50.0245 51.0487 50.2137 51.4734 50.5674L51.894 50.0574C51.3992 49.6667 50.8919 49.4323 50.1043 49.4323C49.0032 49.4323 48.2651 49.9834 48.2651 50.9293C48.2651 51.7766 48.694 52.1837 49.9641 52.6362C51.0404 53.0269 51.3662 53.3312 51.3662 53.8782C51.3662 54.4952 50.8796 54.8818 50.0961 54.8818C49.4899 54.8818 48.9785 54.6021 48.5331 54.1785L48.1001 54.6638C48.562 55.1327 49.2754 55.474 50.0754 55.474C51.3002 55.474 52.0177 54.7625 52.0177 53.8412C52.0177 52.9199 51.6177 52.5333 50.3187 52.0645H50.3146Z" fill="white"/>
<path d="M54.6941 51.4393C55.1395 51.4393 55.4323 51.5956 55.7498 51.8835L56.1292 51.4147C55.7828 51.1103 55.325 50.8923 54.7353 50.8923C53.8116 50.8923 52.8343 51.5792 52.8343 53.2038C52.8343 54.7379 53.7209 55.4699 54.69 55.4699C55.3085 55.4699 55.7374 55.2355 56.1086 54.8571L55.7292 54.4582C55.4281 54.7502 55.1436 54.9229 54.7147 54.9229C53.9353 54.9229 53.4693 54.2279 53.4693 53.1462C53.4693 52.0645 54.0013 51.4311 54.69 51.4311L54.6941 51.4393Z" fill="white"/>
<path d="M58.822 50.8964C58.2694 50.8964 57.8529 51.1556 57.6014 51.5257V49.4611H56.9746V55.3918H57.6014V52.8171C57.6014 51.8547 58.0839 51.4435 58.6942 51.4435C59.4035 51.4435 59.7375 51.8671 59.7375 52.8171V55.3918H60.3685V52.7061C60.3685 51.4435 59.754 50.8964 58.822 50.8964Z" fill="white"/>
<path d="M63.1809 50.8965C62.1087 50.8965 61.2551 51.6985 61.2551 53.1915C61.2551 54.6844 62.0757 55.4782 63.1479 55.4782C64.2201 55.4782 65.082 54.6515 65.082 53.1586C65.082 51.6656 64.2531 50.8965 63.1809 50.8965ZM63.1685 54.9312C62.4015 54.9312 61.886 54.3307 61.886 53.175C61.886 52.0193 62.4015 51.4435 63.1685 51.4435C63.9356 51.4435 64.451 52.0193 64.451 53.175C64.451 54.3307 63.9314 54.9312 63.1685 54.9312Z" fill="white"/>
<path d="M66.6614 49.457H66.0305V55.3878H66.6614V49.457Z" fill="white"/>
<path d="M69.5439 50.8965C68.9707 50.8965 68.4511 51.0404 68.0676 51.2502L68.3027 51.7643C68.6656 51.5545 69.045 51.427 69.5068 51.427C70.1501 51.427 70.4636 51.7478 70.4636 52.3977V52.92C70.2038 52.7761 69.8079 52.665 69.3666 52.665C68.4924 52.665 67.6759 53.0845 67.6759 54.0757C67.6759 55.1368 68.3975 55.4782 69.0862 55.4782C69.7171 55.4782 70.1501 55.1862 70.4636 54.853V55.3918H71.0945V52.3278C71.0945 51.2995 70.4965 50.9006 69.5481 50.9006L69.5439 50.8965ZM70.4594 54.306C70.1955 54.668 69.7584 54.9641 69.1934 54.9641C68.6573 54.9641 68.2944 54.6803 68.2944 54.0264C68.2944 53.4711 68.6821 53.1668 69.3295 53.1668C69.8656 53.1668 70.1749 53.2573 70.4594 53.4177V54.306Z" fill="white"/>
<path d="M72.9213 51.534V50.9829H72.2904V55.3837H72.9213V52.8008C72.9213 51.9659 73.2595 51.4682 73.8781 51.4682C74.175 51.4682 74.3647 51.534 74.542 51.6368L74.7028 50.9994C74.5502 50.9335 74.3441 50.8883 74.0142 50.8883C73.544 50.8883 73.1193 51.1721 72.9255 51.5299L72.9213 51.534Z" fill="white"/>
<path d="M77.1194 52.8295C76.373 52.4923 76.1462 52.3401 76.1462 51.9741C76.1462 51.6574 76.4142 51.4312 76.8761 51.4312C77.3379 51.4312 77.6349 51.5587 77.9771 51.826L78.3277 51.3653C77.9895 51.0898 77.5235 50.8965 76.9173 50.8965C76.1173 50.8965 75.5358 51.3489 75.5358 52.0193C75.5358 52.6897 75.907 52.9899 76.7895 53.3642C77.5689 53.6973 77.8287 53.903 77.8287 54.2608C77.8287 54.6926 77.5441 54.9394 76.9421 54.9394C76.5008 54.9394 76.0926 54.7626 75.7379 54.4541L75.3709 54.9147C75.7915 55.252 76.3194 55.4741 76.9256 55.4741C77.6885 55.4741 78.4349 55.0957 78.4349 54.2361C78.4349 53.4464 77.9483 53.2079 77.1153 52.8295H77.1194Z" fill="white"/>
<path d="M81.3133 50.8964C80.7524 50.8964 80.3442 51.1556 80.0926 51.5257V49.4611H79.4617V55.3918H80.0926V52.8171C80.0926 51.8547 80.571 51.4435 81.1855 51.4435C81.8906 51.4435 82.2247 51.8671 82.2247 52.8171V55.3918H82.8556V52.7061C82.8556 51.4435 82.2453 50.8964 81.3133 50.8964Z" fill="white"/>
<path d="M84.7278 50.9829H84.101V55.3837H84.7278V50.9829Z" fill="white"/>
<path d="M84.4268 49.3048C84.1711 49.3048 83.969 49.5063 83.969 49.7613C83.969 50.0163 84.1711 50.2055 84.4268 50.2055C84.6618 50.2055 84.8639 49.9999 84.8639 49.7613C84.8639 49.5063 84.6618 49.3048 84.4268 49.3048Z" fill="white"/>
<path d="M87.9568 50.8965C87.3629 50.8965 86.9423 51.1926 86.6289 51.5258V50.987H85.9979V57.0041H86.6289V54.8942C86.9382 55.2438 87.3176 55.4782 87.8743 55.4782C88.7939 55.4782 89.5362 54.6721 89.5362 53.1174C89.5362 51.5628 88.8351 50.8965 87.9568 50.8965ZM87.8207 54.9312C87.3011 54.9312 86.8722 54.6392 86.6289 54.269V52.0728C86.9382 51.6903 87.3258 51.4394 87.7959 51.4394C88.497 51.4394 88.9176 52.0152 88.9176 53.1215C88.9176 54.3019 88.5547 54.9271 87.8248 54.9271L87.8207 54.9312Z" fill="white"/>
<path d="M92.8723 50.1151H95.6683V49.5228H92.2166V55.3878H92.8723V52.6527H94.4847V52.0605H92.8723V50.1151Z" fill="white"/>
<path d="M97.5817 50.8965C96.5095 50.8965 95.6518 51.6985 95.6518 53.1915C95.6518 54.6844 96.4766 55.4782 97.5487 55.4782C98.6209 55.4782 99.4828 54.6515 99.4828 53.1586C99.4828 51.6656 98.6622 50.8965 97.5817 50.8965ZM97.5652 54.9312C96.7982 54.9312 96.291 54.3307 96.291 53.175C96.291 52.0193 96.8023 51.4435 97.5652 51.4435C98.3281 51.4435 98.8519 52.0193 98.8519 53.175C98.8519 54.3307 98.3323 54.9312 97.5652 54.9312Z" fill="white"/>
<path d="M102.959 53.5576C102.959 54.52 102.485 54.9312 101.87 54.9312C101.165 54.9312 100.827 54.5076 100.827 53.5576V50.9829H100.2V53.6645C100.2 54.9271 100.815 55.4741 101.747 55.4741C102.295 55.4741 102.708 55.2191 102.959 54.849V55.3878H103.594V50.987H102.959V53.5617V53.5576Z" fill="white"/>
<path d="M106.497 50.8964C105.945 50.8964 105.532 51.1556 105.281 51.5257V50.9869H104.65V55.3877H105.281V52.813C105.281 51.8506 105.759 51.4393 106.374 51.4393C107.079 51.4393 107.413 51.863 107.413 52.813V55.3877H108.044V52.702C108.044 51.4393 107.429 50.8923 106.497 50.8923V50.8964Z" fill="white"/>
<path d="M111.834 51.4847C111.52 51.131 111.145 50.8924 110.588 50.8924C109.664 50.8924 108.926 51.6944 108.926 53.2573C108.926 54.8202 109.623 55.4741 110.506 55.4741C111.104 55.4741 111.52 55.1821 111.829 54.849V55.3878H112.46V49.457H111.829V51.4847H111.834ZM111.834 54.2937C111.52 54.6762 111.137 54.9271 110.667 54.9271C109.97 54.9271 109.549 54.3513 109.549 53.245C109.549 52.0605 109.908 51.4353 110.642 51.4353C111.161 51.4353 111.586 51.7273 111.834 52.0975V54.2896V54.2937Z" fill="white"/>
<path d="M115.133 50.8965C114.564 50.8965 114.044 51.0404 113.656 51.2502L113.887 51.7643C114.25 51.5545 114.63 51.427 115.091 51.427C115.735 51.427 116.044 51.7478 116.044 52.3977V52.92C115.784 52.7761 115.388 52.665 114.943 52.665C114.073 52.665 113.256 53.0845 113.256 54.0757C113.256 55.1368 113.982 55.4782 114.671 55.4782C115.302 55.4782 115.735 55.1862 116.044 54.853V55.3918H116.675V52.3278C116.675 51.2995 116.081 50.9006 115.129 50.9006L115.133 50.8965ZM116.044 54.306C115.776 54.668 115.351 54.9641 114.774 54.9641C114.242 54.9641 113.883 54.6803 113.883 54.0264C113.883 53.4711 114.267 53.1668 114.914 53.1668C115.45 53.1668 115.764 53.2573 116.044 53.4177V54.306Z" fill="white"/>
<path d="M118.687 49.457H118.052V50.9829H117.508V51.5135H118.052V54.4788C118.052 55.2068 118.349 55.47 118.898 55.47C119.228 55.47 119.463 55.4207 119.706 55.322L119.751 54.7791C119.549 54.8613 119.384 54.9024 119.129 54.9024C118.795 54.9024 118.687 54.7667 118.687 54.376V51.5135H119.78V50.9829H118.687V49.457Z" fill="white"/>
<path d="M121.211 49.3048C120.951 49.3048 120.745 49.5063 120.745 49.7613C120.745 50.0163 120.951 50.2055 121.211 50.2055C121.446 50.2055 121.644 49.9999 121.644 49.7613C121.644 49.5063 121.442 49.3048 121.211 49.3048Z" fill="white"/>
<path d="M121.512 50.9829H120.881V55.3837H121.512V50.9829Z" fill="white"/>
<path d="M124.391 50.8965C123.318 50.8965 122.461 51.6985 122.461 53.1915C122.461 54.6844 123.281 55.4782 124.358 55.4782C125.434 55.4782 126.288 54.6515 126.288 53.1586C126.288 51.6656 125.463 50.8965 124.391 50.8965ZM124.374 54.9312C123.611 54.9312 123.096 54.3307 123.096 53.175C123.096 52.0193 123.611 51.4435 124.374 51.4435C125.137 51.4435 125.661 52.0193 125.661 53.175C125.661 54.3307 125.141 54.9312 124.374 54.9312Z" fill="white"/>
<path d="M129.046 50.8964C128.494 50.8964 128.081 51.1556 127.826 51.5257V50.9869H127.195V55.3877H127.826V52.813C127.826 51.8506 128.304 51.4393 128.919 51.4393C129.624 51.4393 129.962 51.863 129.962 52.813V55.3877H130.589V52.702C130.589 51.4393 129.974 50.8923 129.046 50.8923V50.8964Z" fill="white"/>
<path d="M72.3605 29.2505C69.8285 29.2546 67.7418 31.2288 67.7418 33.7047C67.7418 36.1806 69.8285 38.1342 72.3605 38.1425C74.9173 38.1342 76.9833 36.156 76.9833 33.7047C76.9833 31.2534 74.9173 29.2546 72.3605 29.2505ZM72.2986 36.1107C70.9749 36.1107 69.9769 35.0332 69.9769 33.7047C69.9769 32.3763 71.045 31.2781 72.3646 31.2781C73.6842 31.2781 74.7152 32.3557 74.7152 33.7047C74.7152 35.0537 73.6348 36.1107 72.3028 36.1107H72.2986Z" fill="white"/>
<path d="M51.1682 26.1865C51.8734 26.8816 52.6817 27.4903 53.4776 27.881L53.56 27.9263L54.925 26.3181L54.7931 26.2441C53.4982 25.5449 52.4837 24.6607 51.8198 23.5461C51.16 22.4479 50.8218 21.173 50.8218 19.6471V18.2158H48.3805V19.4949C48.3805 21.1483 48.0053 22.4479 47.3001 23.5872C46.5125 24.8498 45.3454 25.8657 43.8526 26.8076L43.7206 26.8898L45.2011 28.4198L45.2836 28.3746C46.1661 27.8975 47.1022 27.1613 47.9146 26.3387C48.6197 25.619 49.23 24.8498 49.6012 24.1219C49.96 24.8375 50.5084 25.5655 51.1682 26.1906V26.1865Z" fill="white"/>
<path d="M48.5249 37.0896H58.7437V30.1266H48.5249V37.0896ZM50.8218 32.0925H56.4467V35.1237H50.8218V32.0925Z" fill="white"/>
<path d="M82.5958 37.0896H94.1507V30.1266H82.5958V37.0896ZM84.868 32.0925H91.8826V35.1237H84.868V32.0925Z" fill="white"/>
<path d="M58.7849 17.8044H56.5127V29.3287H58.7849V24.2287H61.4448V22.1805H58.7849V17.8044Z" fill="white"/>
<path d="M105.895 26.7747C106.642 27.4204 107.495 27.9633 108.3 28.3129L108.382 28.3499L109.611 26.6924L109.479 26.6266C108.308 26.0302 107.264 25.2899 106.514 24.3851C105.751 23.4638 105.297 22.3533 105.297 21.0167V20.6259H108.679V18.6436H99.4993V20.6259H102.877V21.103C102.877 22.3204 102.473 23.4556 101.8 24.4386C101.013 25.6189 99.8622 26.569 98.7446 27.1859L98.5962 27.2641L100.105 28.8229L100.188 28.7817C101 28.3211 101.899 27.626 102.666 26.8446C103.281 26.203 103.833 25.5244 104.172 24.8457C104.58 25.5038 105.207 26.1618 105.899 26.7747H105.895Z" fill="white"/>
<path d="M122.329 32.1378H130.589V37.0856H132.882V30.1719H122.329V32.1378Z" fill="white"/>
<path d="M128.028 24.2123C128.028 23.1224 127.537 22.1189 126.811 21.3539H129.079V19.392H124.749V17.2328H122.287V19.392H117.854V21.3539H120.172C119.463 22.1189 118.972 23.1142 118.972 24.2123C118.972 26.643 120.98 28.6172 123.492 28.6254C126.003 28.6172 128.024 26.643 128.028 24.2123ZM121.162 24.1218C121.162 22.7769 122.3 21.6377 123.492 21.6377C124.683 21.6377 125.817 22.781 125.822 24.1218C125.822 25.4462 124.683 26.5895 123.492 26.5936C122.296 26.5895 121.166 25.4462 121.162 24.1218Z" fill="white"/>
<path d="M132.882 17.8044H130.613V29.3698H132.882V24.9567H135.55V22.9085H132.882V17.8044Z" fill="white"/>
<path d="M113.636 17.8044H111.368V29.3698H113.636V24.2287H116.3V22.1805H113.636V17.8044Z" fill="white"/>
<path d="M75.1358 21.2346H71.5646V23.2622H75.1358V29.7358H77.408V17.8044H75.1358V21.2346Z" fill="white"/>
<path d="M69.3666 26.4868C70.0759 27.1777 70.9048 27.7864 71.6966 28.1977L71.7832 28.2471L73.1481 26.6389L73.0162 26.5649C71.7213 25.8863 70.7275 25.0061 70.0594 23.908C69.3831 22.8181 69.045 21.4938 69.045 19.9679V18.2158H66.5995V19.8198C66.5995 21.4732 66.2284 22.7687 65.5397 23.8874C64.7562 25.1707 63.5644 26.1947 62.0716 27.1284L61.9438 27.2106L63.4325 28.7447L63.5067 28.6954C64.385 28.2142 65.3005 27.5191 66.1129 26.7253C66.847 25.9973 67.4573 25.2036 67.8284 24.4427C68.179 25.1377 68.7151 25.8452 69.3666 26.4909V26.4868Z" fill="white"/>
<path d="M108.765 29.2505C106.233 29.2546 104.147 31.2288 104.143 33.7047C104.147 36.156 106.229 38.1342 108.765 38.1425C111.318 38.1342 113.388 36.156 113.388 33.7047C113.388 31.2534 111.318 29.2546 108.765 29.2505ZM108.7 36.1107C107.38 36.1107 106.374 35.0332 106.374 33.7047C106.374 32.3763 107.438 31.2781 108.765 31.2781C110.093 31.2781 111.112 32.3557 111.116 33.7047C111.116 35.029 110.031 36.1107 108.7 36.1107Z" fill="white"/>
<path d="M85.3629 24.4138H87.6351V18.5283H81.503V20.486H85.3629V24.4138Z" fill="white"/>
<path d="M92.1836 24.4138H94.46V18.5283H88.3279V20.486H92.1836V24.4138Z" fill="white"/>
<path d="M150.103 23.0154H148.193V18.1252H146.045V36.5919H148.193V25.2364H150.103V37.0855H152.329V17.8044H150.103V23.0154Z" fill="white"/>
<path d="M142.894 25.5695C142.383 24.4549 142.172 23.2087 142.172 21.6787V20.9508H144.75V18.8738H137.261V20.9508H139.921V21.7199C139.921 23.1676 139.731 24.3521 139.273 25.4502C138.741 26.7129 137.847 27.848 136.42 29.0654L136.321 29.1559L137.731 30.5502L137.818 30.4844C138.527 29.962 139.269 29.2053 139.888 28.4238C140.412 27.7658 140.853 27.083 141.129 26.4826C141.414 27.0666 141.859 27.737 142.379 28.3621C142.981 29.0942 143.661 29.7893 144.313 30.2047L144.399 30.2623L145.587 28.8474L145.492 28.7611C144.214 27.6506 143.422 26.6594 142.902 25.5654L142.894 25.5695Z" fill="white"/>
<path d="M79.6019 27.153H87.1444V29.3493H89.6063V27.153H97.2683V25.183H79.6019V27.153Z" fill="white"/>
<path d="M165.266 26.5238H157.587V20.6959H163.435V18.6436H155.286V28.5144H165.266V26.5238Z" fill="white"/>
<path d="M160.923 30.9409H158.626V37.0855H169.369V35.062H160.923V30.9409Z" fill="white"/>
<path d="M169.315 23.143V17.8004H167.047V32.0268H169.315V25.1912H172V23.143H169.315Z" fill="white"/>
<path d="M48.1702 11.8532L42.2856 9.42254L48.1702 6.99185L47.1228 4.47889L41.2422 6.90959L43.6794 1.04055L41.1556 0L38.7226 5.86904L36.2854 0L33.7616 1.04055L36.1988 6.90959L30.3183 4.47889L29.2749 6.99185L35.1555 9.42254L29.2749 11.8532L30.3183 14.3662L36.1988 11.9355L33.7616 17.8045L36.2854 18.8451L38.7226 12.9802L41.1556 18.8451L43.6794 17.8004L41.2422 11.9355L47.1228 14.3662L48.1702 11.8532Z" fill="white"/>
<path d="M10.0951 28.2265H14.0086V17.8046H0.62682V21.3169H10.0951V28.2265Z" fill="white"/>
<path d="M25.3614 28.2265H29.2749V17.8046H15.8932V21.3169H25.3614V28.2265Z" fill="white"/>
<path d="M0 33.6185H25.3614V38.9857H29.2749V30.1061H0V33.6185Z" fill="white"/>
<path d="M9.46827 55.3878H29.2749V40.7913H9.46827V55.3878ZM13.3818 44.3036H25.3656V51.8754H13.3818V44.3036Z" fill="white"/>
</g>
<defs>
<clipPath id="clip0_7_120">
<rect width="172" height="57" fill="white"/>
</clipPath>
</defs>
</svg>
