<svg width="36" height="36" viewBox="0 0 36 36" fill="none" xmlns="http://www.w3.org/2000/svg">
<mask id="mask0_32_463" style="mask-type:alpha" maskUnits="userSpaceOnUse" x="0" y="0" width="36" height="36">
<rect width="35.75" height="35.75" fill="#D9D9D9"/>
</mask>
<g mask="url(#mask0_32_463)">
<path d="M19.9775 18.6198L17.3481 21.2497C17.2085 21.3889 17.1436 21.555 17.1533 21.7479C17.1627 21.9408 17.2372 22.1069 17.3767 22.2462C17.516 22.3857 17.6884 22.4555 17.894 22.4555C18.0996 22.4555 18.2689 22.3857 18.4019 22.2462L21.9311 18.7174C22.172 18.4765 22.2924 18.1958 22.2924 17.875C22.2924 17.5542 22.172 17.2735 21.9311 17.0326L18.3733 13.4751C18.234 13.3356 18.0679 13.2659 17.875 13.2659C17.6821 13.2659 17.516 13.3356 17.3767 13.4751C17.2372 13.6144 17.1674 13.7868 17.1674 13.9924C17.1674 14.1982 17.2372 14.3675 17.3767 14.5003L19.9775 17.1302H13.4062C13.1952 17.1302 13.0183 17.2017 12.8756 17.3447C12.7328 17.4877 12.6615 17.6648 12.6615 17.8761C12.6615 18.0874 12.7328 18.2642 12.8756 18.4064C13.0183 18.5487 13.1952 18.6198 13.4062 18.6198H19.9775ZM17.8798 31.2812C16.0261 31.2812 14.2831 30.9295 12.651 30.2259C11.0192 29.5223 9.59962 28.5675 8.39231 27.3614C7.18501 26.1553 6.22931 24.737 5.52524 23.1064C4.82091 21.4761 4.46875 19.7339 4.46875 17.8798C4.46875 16.0261 4.82054 14.2831 5.52412 12.651C6.2277 11.0192 7.18252 9.59962 8.38859 8.39231C9.59465 7.185 11.013 6.22931 12.6436 5.52524C14.2739 4.82091 16.0161 4.46875 17.8702 4.46875C19.7239 4.46875 21.4669 4.82054 23.099 5.52412C24.7308 6.2277 26.1504 7.18252 27.3577 8.38859C28.565 9.59466 29.5207 11.013 30.2248 12.6436C30.9291 14.2739 31.2812 16.0161 31.2812 17.8702C31.2812 19.7239 30.9295 21.4669 30.2259 23.099C29.5223 24.7308 28.5675 26.1504 27.3614 27.3577C26.1553 28.565 24.737 29.5207 23.1064 30.2248C21.4761 30.9291 19.7339 31.2812 17.8798 31.2812ZM17.875 29.7917C21.2017 29.7917 24.0195 28.6372 26.3284 26.3284C28.6372 24.0195 29.7917 21.2017 29.7917 17.875C29.7917 14.5483 28.6372 11.7305 26.3284 9.42161C24.0195 7.11276 21.2017 5.95833 17.875 5.95833C14.5483 5.95833 11.7305 7.11276 9.42161 9.42161C7.11276 11.7305 5.95833 14.5483 5.95833 17.875C5.95833 21.2017 7.11276 24.0195 9.42161 26.3284C11.7305 28.6372 14.5483 29.7917 17.875 29.7917Z" fill="#CCCCCC"/>
</g>
</svg>
