<svg width="34" height="34" viewBox="0 0 34 34" fill="none" xmlns="http://www.w3.org/2000/svg">
<mask id="mask0_30_19" style="mask-type:alpha" maskUnits="userSpaceOnUse" x="0" y="0" width="34" height="34">
<rect width="33.6899" height="33.6899" fill="#D9D9D9"/>
</mask>
<g mask="url(#mask0_30_19)">
<path d="M16.845 18.2484C16.4473 18.2484 16.1139 18.1139 15.8448 17.8449C15.5758 17.5758 15.4412 17.2424 15.4412 16.8447V8.17655L9.96663 13.6161C9.70928 13.8734 9.38759 14.008 9.00156 14.0196C8.61553 14.0313 8.28214 13.8968 8.00139 13.6161C7.74403 13.3587 7.61536 13.0312 7.61536 12.6334C7.61536 12.2357 7.74403 11.9082 8.00139 11.6508L15.8624 3.78984C16.0027 3.64946 16.1548 3.55003 16.3186 3.49154C16.4824 3.43305 16.6578 3.40381 16.845 3.40381C17.0322 3.40381 17.2076 3.43305 17.3714 3.49154C17.5352 3.55003 17.6872 3.64946 17.8276 3.78984L25.6886 11.6508C25.946 11.9082 26.0746 12.2299 26.0746 12.6159C26.0746 13.0019 25.946 13.3353 25.6886 13.6161C25.4079 13.8968 25.0745 14.0372 24.6884 14.0372C24.3024 14.0372 23.969 13.8968 23.6883 13.6161L18.2487 8.17655V16.8447C18.2487 17.2424 18.1142 17.5758 17.8452 17.8449C17.5761 18.1139 17.2427 18.2484 16.845 18.2484ZM16.845 25.2672C16.4473 25.2672 16.1139 25.1327 15.8448 24.8636C15.5758 24.5945 15.4412 24.2612 15.4412 23.8634V22.4597C15.4412 22.062 15.5758 21.7286 15.8448 21.4595C16.1139 21.1905 16.4473 21.0559 16.845 21.0559C17.2427 21.0559 17.5761 21.1905 17.8452 21.4595C18.1142 21.7286 18.2487 22.062 18.2487 22.4597V23.8634C18.2487 24.2612 18.1142 24.5945 17.8452 24.8636C17.5761 25.1327 17.2427 25.2672 16.845 25.2672ZM16.845 30.8822C16.4473 30.8822 16.1139 30.7476 15.8448 30.4786C15.5758 30.2095 15.4412 29.8761 15.4412 29.4784C15.4412 29.0807 15.5758 28.7473 15.8448 28.4783C16.1139 28.2092 16.4473 28.0747 16.845 28.0747C17.2427 28.0747 17.5761 28.2092 17.8452 28.4783C18.1142 28.7473 18.2487 29.0807 18.2487 29.4784C18.2487 29.8761 18.1142 30.2095 17.8452 30.4786C17.5761 30.7476 17.2427 30.8822 16.845 30.8822Z" fill="#BDD3E1"/>
</g>
</svg>
