<?xml version="1.0" encoding="UTF-8"?>
<svg id="Layer_1" data-name="Layer 1" xmlns="http://www.w3.org/2000/svg" version="1.1" viewBox="0 0 80 80">
  <defs>
    <style>
      .cls-1 {
        fill: #b8926b;
      }

      .cls-1, .cls-2 {
        stroke-width: 0px;
      }

      .cls-2 {
        fill: #e7d5bf;
      }
    </style>
  </defs>
  <g>
    <path class="cls-1" d="M40.49,43.53c11.61,0,20.76-11.52,18.45-24.68-1.58-9.02-8.68-15.8-17.04-16.45-.56-.04.46-2.82-.64-2.34-.48.21-2.03,2.34-2.52,2.4-9.19,1.09-15.39,5.81-17.53,16.46l1.13-.84c.51-.38,1.18-.4,1.71-.06l.46.29c.24.15.54.16.78,0l.54-.33c.54-.33,1.2-.28,1.71.11l.81.63c.22.17.51-.02.49-.31-.39-7.92,6.16-10.2,13.63-8.85,5.97,1.08,10.47,6.93,10.39,13.57-.1,7.39-5.6,13.35-12.37,13.35v7.05Z"/>
    <path class="cls-2" d="M46.27,43.65c-.5,0-1.16-.1-1.83-.49-1.38-.79-2.32-2.45-2.81-4.93l-.51-2.29.98-.22.51,2.31c.42,2.16,1.22,3.63,2.31,4.26,1.03.6,1.98.28,2.02.27.78-.14,1.24-.43,1.49-.92.65-1.27-.23-3.61-.63-4.4-1.48-3.61.59-5.65.68-5.73,2.63-2.42,5.93-.74,6.07-.67,1.24.57,2.27.68,3.05.32.92-.42,1.21-1.4,1.21-1.41.25-1.36.11-2.44-.44-3.18-.61-.82-1.54-.94-1.55-.94-3.39-.74-4.68-2.66-4.89-3-.68-.84-.46-3.28.65-7.25.1-.38.17-.77.21-1.16l.33-4.02c.4-2.83-1.27-4.19-1.34-4.25-.51-.26-1.06-.32-1.58-.14-1.17.39-1.86,1.83-1.87,1.85-1.94,4.06-4.13,3.93-4.58,3.85-2.81,0-3.36-3.83-3.38-4-.34-3.58-1.28-4.68-1.8-5.02-.46-.3-.83-.17-.85-.17l-.16.03c-1.8.05-3.18,3.2-3.56,4.4l-1.07,5.33c-1.19,3.24-5.21,2.62-6.22,2.27-.05-.02-.1-.04-.14-.06-3.95-.47-6,2.8-6.02,2.84l-.85-.52s2.41-3.84,6.96-3.31c.27-.03.67.08,1.19.23v.05c.71.1,1.76.12,2.65-.24.72-.3,1.21-.8,1.47-1.53l1.06-5.31c.08-.25,1.59-4.99,4.42-5.15.24-.07.88-.18,1.61.26,1.23.76,2,2.7,2.3,5.78,0,.01.45,3.11,2.4,3.11,0,0,.02,0,.03,0h.07s.07.02.07.02c0,0,1.76.35,3.5-3.3.03-.07.87-1.83,2.45-2.37.79-.27,1.62-.18,2.45.25.17.12,2.28,1.8,1.8,5.2l-.33,3.99c-.04.46-.12.91-.24,1.35-1.07,3.82-1.18,5.97-.84,6.35l.07.1c.04.07,1.08,1.86,4.2,2.55h0s1.33.16,2.2,1.33c.72.97.93,2.32.61,4-.02.1-.41,1.46-1.75,2.09-1.06.49-2.38.38-3.93-.33-.13-.07-2.84-1.44-4.94.5-.06.06-1.65,1.67-.45,4.59.05.1,1.62,3.29.61,5.27-.4.78-1.12,1.26-2.14,1.43h0s-.36.13-.92.13Z"/>
    <path class="cls-1" d="M40.61,43.52v-7.05"/>
  </g>
  <g>
    <path class="cls-1" d="M41.05,36.47c-11.61,0-20.76,11.52-18.45,24.68,1.58,9.02,8.68,15.8,17.04,16.45.56.04-.46,2.82.64,2.34.48-.21,2.03-2.34,2.52-2.4,9.19-1.09,15.39-5.81,17.53-16.46l-1.13.84c-.51.38-1.18.4-1.71.06l-.46-.29c-.24-.15-.54-.16-.78,0l-.54.33c-.54.33-1.2.28-1.71-.11l-.81-.63c-.22-.17-.51.02-.49.31.39,7.92-6.16,10.2-13.63,8.85-5.97-1.08-10.47-6.93-10.39-13.57.1-7.39,5.6-13.35,12.37-13.35v-7.05Z"/>
    <path class="cls-2" d="M43.6,78.71c-.3,0-.7-.07-1.12-.33-1.23-.76-2-2.7-2.3-5.78,0-.01-.45-3.11-2.41-3.11h-.1s-.07-.02-.07-.02c0,0-1.76-.35-3.5,3.3-.03.07-.87,1.83-2.44,2.37-.79.27-1.62.18-2.45-.25-.17-.12-2.28-1.8-1.8-5.2l.32-3.99c.04-.46.12-.91.24-1.35,1.07-3.82,1.18-5.97.84-6.35l-.07-.1c-.04-.07-1.08-1.86-4.2-2.55,0-.01-1.31-.14-2.2-1.33-.72-.97-.93-2.32-.61-4,.02-.1.41-1.46,1.75-2.09,1.06-.49,2.38-.38,3.93.33.14.07,2.84,1.44,4.94-.5.06-.06,1.65-1.67.45-4.59-.05-.1-1.62-3.29-.61-5.27.4-.78,1.12-1.26,2.14-1.43h0s1.32-.46,2.75.36c1.38.79,2.32,2.45,2.8,4.93l.51,2.29-.98.22-.51-2.31c-.42-2.16-1.22-3.63-2.31-4.26-1.03-.6-1.98-.28-2.02-.27-.78.14-1.24.43-1.49.92-.65,1.27.23,3.61.63,4.4,1.48,3.61-.59,5.65-.68,5.73-2.63,2.42-5.93.74-6.07.67-1.23-.57-2.27-.68-3.05-.32-.92.42-1.21,1.4-1.21,1.41-.25,1.35-.11,2.43.43,3.17.61.83,1.56.96,1.57.96,3.39.74,4.68,2.66,4.88,3,.68.84.46,3.28-.65,7.25-.1.37-.17.76-.21,1.16l-.33,4.01c-.4,2.86,1.32,4.23,1.34,4.25.52.26,1.06.32,1.59.14,1.16-.39,1.85-1.83,1.86-1.84,1.94-4.06,4.13-3.93,4.58-3.85,2.81,0,3.36,3.83,3.38,4,.34,3.58,1.28,4.68,1.8,5.02.46.29.83.17.85.17l.16-.03c1.8-.05,3.18-3.19,3.56-4.4l1.07-5.33c1.19-3.24,5.21-2.61,6.22-2.27.05.02.1.04.14.06,3.93.47,5.93-2.7,6.02-2.84l.85.52s-2.4,3.83-6.96,3.31c-.27.04-.67-.08-1.19-.23v-.05c-.72-.1-1.76-.12-2.65.24-.72.3-1.21.8-1.47,1.53l-1.06,5.31c-.08.25-1.59,4.99-4.42,5.15-.1.03-.27.06-.49.06Z"/>
    <path class="cls-1" d="M40.92,36.48v7.05"/>
  </g>
  <g>
    <path class="cls-1" d="M36.24,39.72c0,11.61,11.52,20.76,24.68,18.45,9.02-1.58,15.8-8.68,16.45-17.04.04-.56,2.82.46,2.34-.64-.21-.48-2.34-2.03-2.4-2.52-1.09-9.19-5.81-15.39-16.46-17.53l.84,1.13c.38.51.4,1.18.06,1.71l-.29.46c-.15.24-.16.54,0,.78l.33.54c.33.54.28,1.2-.11,1.71l-.63.81c-.17.22.02.51.31.49,7.92-.39,10.2,6.16,8.85,13.63-1.08,5.97-6.93,10.47-13.57,10.39-7.39-.1-13.35-5.6-13.35-12.37h-7.05Z"/>
    <path class="cls-2" d="M51.23,59.16c-.45,0-.93-.05-1.44-.14-.1-.02-1.46-.41-2.09-1.75-.5-1.06-.38-2.38.33-3.93.07-.13,1.43-2.84-.5-4.94-.06-.06-1.67-1.65-4.59-.45-.1.05-3.29,1.61-5.27.61-.78-.4-1.26-1.12-1.43-2.14h0s-.45-1.33.36-2.75c.79-1.38,2.45-2.32,4.93-2.8l2.29-.51.22.98-2.31.51c-2.16.42-3.62,1.22-4.26,2.31-.6,1.03-.28,1.98-.27,2.02.14.78.43,1.24.92,1.49,1.27.65,3.61-.23,4.4-.63,3.61-1.48,5.65.59,5.73.68,2.42,2.63.74,5.93.67,6.07-.57,1.24-.68,2.27-.32,3.05.42.92,1.4,1.21,1.41,1.21,1.35.25,2.43.11,3.17-.43.83-.61.96-1.56.96-1.57.74-3.38,2.66-4.68,3-4.88.84-.68,3.28-.46,7.25.65.38.11.75.17,1.16.21l4.02.33c2.82.4,4.19-1.27,4.25-1.34.26-.51.32-1.06.14-1.59-.39-1.17-1.83-1.86-1.85-1.87-4.06-1.94-3.93-4.12-3.85-4.58,0-2.81,3.83-3.36,4-3.39,3.58-.34,4.68-1.28,5.02-1.8.3-.46.17-.83.17-.85l-.03-.16c-.05-1.8-3.2-3.18-4.4-3.56l-5.33-1.07c-3.24-1.19-2.61-5.21-2.27-6.22.02-.05.04-.1.05-.14.46-3.95-2.8-6-2.84-6.02l.52-.85s3.83,2.41,3.31,6.96c.03.27-.08.67-.23,1.19h-.05c-.1.71-.12,1.76.24,2.65.3.72.8,1.21,1.53,1.47l5.31,1.06c.25.08,4.99,1.59,5.15,4.42.07.24.18.88-.26,1.6-.76,1.23-2.7,2-5.78,2.3-.01,0-3.14.46-3.11,2.43v.07s-.02.07-.02.07c0,0-.35,1.76,3.3,3.5.07.03,1.83.87,2.37,2.44.27.79.18,1.62-.25,2.45-.12.17-1.81,2.28-5.2,1.79l-3.99-.33c-.46-.04-.91-.12-1.35-.24-3.82-1.07-5.97-1.18-6.35-.84l-.1.07c-.07.04-1.86,1.08-2.55,4.2,0,0-.15,1.32-1.33,2.2-.68.5-1.54.76-2.56.76Z"/>
    <path class="cls-1" d="M36.25,39.84h7.05"/>
  </g>
  <g>
    <path class="cls-1" d="M43.3,40.28c0-11.61-11.52-20.76-24.68-18.45-9.02,1.58-15.8,8.68-16.45,17.04-.04.56-2.82-.46-2.34.64.21.48,2.34,2.03,2.4,2.52,1.09,9.19,5.81,15.39,16.46,17.53l-.84-1.13c-.38-.51-.4-1.18-.06-1.71l.29-.46c.15-.24.16-.54,0-.78l-.33-.54c-.33-.54-.28-1.2.11-1.71l.63-.81c.17-.22-.02-.51-.31-.49-7.92.39-10.2-6.16-8.85-13.63,1.08-5.97,6.93-10.47,13.57-10.39,7.39.1,13.35,5.6,13.35,12.37h7.05Z"/>
    <path class="cls-2" d="M16.39,61.09s-3.83-2.41-3.31-6.96c-.03-.27.08-.67.23-1.19h.05c.1-.71.13-1.76-.24-2.65-.3-.72-.8-1.21-1.53-1.47l-5.31-1.06c-.25-.08-4.99-1.59-5.15-4.42-.07-.24-.18-.88.26-1.61.76-1.23,2.7-2,5.78-2.3.01,0,3.14-.46,3.11-2.43v-.07s.02-.07.02-.07c0,0,.35-1.76-3.3-3.5-.07-.03-1.83-.87-2.37-2.45-.27-.79-.18-1.62.25-2.45.12-.17,1.8-2.28,5.2-1.8l3.99.32c.46.04.91.12,1.35.24,3.82,1.07,5.98,1.18,6.35.84l.1-.07c.07-.04,1.86-1.08,2.55-4.2,0,0,.15-1.32,1.33-2.2.97-.72,2.32-.93,4-.61.1.02,1.46.41,2.09,1.75.5,1.06.39,2.38-.33,3.93-.07.13-1.43,2.84.5,4.94.06.06,1.67,1.65,4.59.45.1-.05,3.29-1.62,5.27-.61.78.4,1.26,1.12,1.43,2.14h0s.45,1.33-.36,2.75c-.79,1.38-2.45,2.32-4.93,2.8l-2.29.51-.22-.98,2.31-.51c2.17-.42,3.64-1.23,4.27-2.32.58-1.02.27-1.99.26-2-.14-.78-.43-1.24-.92-1.49-1.26-.65-3.6.23-4.4.63-3.61,1.48-5.65-.59-5.73-.68-2.42-2.63-.74-5.93-.67-6.07.57-1.24.68-2.28.32-3.06-.43-.91-1.4-1.2-1.4-1.2-1.35-.25-2.43-.11-3.17.43-.83.61-.96,1.56-.96,1.57-.74,3.38-2.66,4.68-3,4.88-.84.68-3.28.46-7.25-.65-.38-.11-.77-.17-1.16-.21l-4.02-.33c-2.83-.4-4.19,1.27-4.25,1.34-.26.51-.32,1.06-.14,1.58.39,1.17,1.83,1.86,1.85,1.87,4.06,1.94,3.93,4.12,3.85,4.58,0,2.81-3.83,3.36-4,3.38-3.58.34-4.68,1.28-5.02,1.8-.3.46-.17.83-.17.85l.03.16c.05,1.8,3.2,3.18,4.4,3.56l5.33,1.07c3.24,1.19,2.61,5.21,2.27,6.22-.02.05-.04.1-.06.14-.47,3.92,2.7,5.93,2.84,6.02l-.52.85Z"/>
    <path class="cls-1" d="M43.29,40.16h-7.05"/>
  </g>
</svg>