<?xml version="1.0" encoding="UTF-8"?>
<svg id="Layer_1" data-name="Layer 1" xmlns="http://www.w3.org/2000/svg" version="1.1" viewBox="0 0 500 500">
  <defs>
    <style>
      .cls-1 {
        fill: #e80a4d;
        stroke-width: 0px;
      }
    </style>
  </defs>
  <circle class="cls-1" cx="7.95" cy="224.36" r="7.95"/>
  <circle class="cls-1" cx="104.63" cy="171.99" r="7.95"/>
  <path class="cls-1" d="M385.52,254.9c-24.47-9.93-11.75-50.4-6.49-60.29,0,0-35.4,41.51-71.35,41.51s-52.56-48.47-57.77-69.96c-5.21,21.49-21.83,69.96-57.77,69.96s-71.35-41.51-71.35-41.51c5.26,9.89,17.97,50.36-6.49,60.29-24.12,9.79-81.94-12.06-81.94-12.06,60.6,51.33,62.77,100.8,62.77,100.8,81.32-11.44,154.78-11.13,154.78-11.13,0,0,73.46-.31,154.78,11.13,0,0,2.16-49.47,62.77-100.8,0,0-57.82,21.85-81.94,12.06Z"/>
  <path class="cls-1" d="M492.05,216.41c-4.39,0-7.95,3.56-7.95,7.95s3.56,7.95,7.95,7.95,7.95-3.56,7.95-7.95-3.56-7.95-7.95-7.95Z"/>
  <circle class="cls-1" cx="395.37" cy="171.99" r="7.95"/>
  <path class="cls-1" d="M250,146.76c4.39,0,7.95-3.56,7.95-7.95s-3.56-7.95-7.95-7.95-7.95,3.56-7.95,7.95,3.56,7.95,7.95,7.95Z"/>
</svg>