<svg xmlns="http://www.w3.org/2000/svg" width="16.996" height="9.343" viewBox="0 0 16.996 9.343">
  <path id="arrow_forward_ios_24dp_FILL0_wght400_GRAD0_opsz24" d="M277.388-851.5l-6.579-6.579a1.048,1.048,0,0,1-.324-.795,1.127,1.127,0,0,1,.347-.794,1.086,1.086,0,0,1,.794-.336,1.086,1.086,0,0,1,.794.336l6.87,6.892a1.788,1.788,0,0,1,.4.6,1.8,1.8,0,0,1,.134.671,1.8,1.8,0,0,1-.134.671,1.788,1.788,0,0,1-.4.6l-6.892,6.892a1.034,1.034,0,0,1-.783.324,1.115,1.115,0,0,1-.783-.347,1.086,1.086,0,0,1-.336-.794,1.086,1.086,0,0,1,.336-.794Z" transform="translate(-843.004 -270.484) rotate(90)" fill="#fff"/>
</svg>
